<?xml version="1.0" encoding="UTF-8" standalone="no"?>
<!DOCTYPE svg PUBLIC "-//W3C//DTD SVG 1.1//EN"
 "http://www.w3.org/Graphics/SVG/1.1/DTD/svg11.dtd">
<!-- Generated by graphviz version 2.47.3 (20210619.1520)
 -->
<!-- Title: dependencies Pages: 1 -->
<svg width="855pt" height="247pt"
 viewBox="0.00 0.00 855.00 246.80" xmlns="http://www.w3.org/2000/svg" xmlns:xlink="http://www.w3.org/1999/xlink">
<g id="graph0" class="graph" transform="scale(1 1) rotate(0) translate(4 242.8)">
<title>dependencies</title>
<polygon fill="white" stroke="transparent" points="-4,4 -4,-242.8 851,-242.8 851,4 -4,4"/>
<text text-anchor="middle" x="423.5" y="-8.2" font-family="sans-serif" font-size="14.00">dependencies</text>
<g id="clust1" class="cluster">
<title>cluster_AppModule</title>
<polygon fill="none" stroke="black" stroke-dasharray="1,5" points="8,-32.8 8,-230.8 839,-230.8 839,-32.8 8,-32.8"/>
</g>
<g id="clust2" class="cluster">
<title>cluster_AppModule_declarations</title>
<polygon fill="none" stroke="black" points="16,-40.8 16,-92.8 831,-92.8 831,-40.8 16,-40.8"/>
</g>
<g id="clust10" class="cluster">
<title>cluster_AppModule_bootstrap</title>
<polygon fill="none" stroke="black" points="407,-170.8 407,-222.8 531,-222.8 531,-170.8 407,-170.8"/>
</g>
<!-- AppComponent -->
<g id="node1" class="node">
<title>AppComponent</title>
<polygon fill="#ffffb3" stroke="black" points="822.94,-84.8 717.06,-84.8 717.06,-48.8 822.94,-48.8 822.94,-84.8"/>
<text text-anchor="middle" x="770" y="-62.6" font-family="Times,serif" font-size="14.00">AppComponent</text>
</g>
<!-- AppModule -->
<g id="node6" class="node">
<title>AppModule</title>
<polygon fill="#8dd3c7" stroke="black" points="510.66,-149.8 507.66,-153.8 486.66,-153.8 483.66,-149.8 427.34,-149.8 427.34,-113.8 510.66,-113.8 510.66,-149.8"/>
<text text-anchor="middle" x="469" y="-127.6" font-family="Times,serif" font-size="14.00">AppModule</text>
</g>
<!-- AppComponent&#45;&gt;AppModule -->
<g id="edge1" class="edge">
<title>AppComponent&#45;&gt;AppModule</title>
<path fill="none" stroke="black" d="M770,-85.08C770,-106.12 770,-137.8 770,-137.8 770,-137.8 520.85,-137.8 520.85,-137.8"/>
<polygon fill="black" stroke="black" points="520.85,-134.3 510.85,-137.8 520.85,-141.3 520.85,-134.3"/>
</g>
<!-- EnTeteComponent -->
<g id="node2" class="node">
<title>EnTeteComponent</title>
<polygon fill="#ffffb3" stroke="black" points="698.76,-84.8 577.24,-84.8 577.24,-48.8 698.76,-48.8 698.76,-84.8"/>
<text text-anchor="middle" x="638" y="-62.6" font-family="Times,serif" font-size="14.00">EnTeteComponent</text>
</g>
<!-- EnTeteComponent&#45;&gt;AppModule -->
<g id="edge2" class="edge">
<title>EnTeteComponent&#45;&gt;AppModule</title>
<path fill="none" stroke="black" d="M638,-84.82C638,-102.17 638,-125.8 638,-125.8 638,-125.8 520.78,-125.8 520.78,-125.8"/>
<polygon fill="black" stroke="black" points="520.78,-122.3 510.78,-125.8 520.78,-129.3 520.78,-122.3"/>
</g>
<!-- NouveauMessageComponent -->
<g id="node3" class="node">
<title>NouveauMessageComponent</title>
<polygon fill="#ffffb3" stroke="black" points="559.35,-84.8 378.65,-84.8 378.65,-48.8 559.35,-48.8 559.35,-84.8"/>
<text text-anchor="middle" x="469" y="-62.6" font-family="Times,serif" font-size="14.00">NouveauMessageComponent</text>
</g>
<!-- NouveauMessageComponent&#45;&gt;AppModule -->
<g id="edge3" class="edge">
<title>NouveauMessageComponent&#45;&gt;AppModule</title>
<path fill="none" stroke="black" d="M469,-84.91C469,-84.91 469,-103.79 469,-103.79"/>
<polygon fill="black" stroke="black" points="465.5,-103.79 469,-113.79 472.5,-103.79 465.5,-103.79"/>
</g>
<!-- PersonnesActivesComponent -->
<g id="node4" class="node">
<title>PersonnesActivesComponent</title>
<polygon fill="#ffffb3" stroke="black" points="360.36,-84.8 179.64,-84.8 179.64,-48.8 360.36,-48.8 360.36,-84.8"/>
<text text-anchor="middle" x="270" y="-62.6" font-family="Times,serif" font-size="14.00">PersonnesActivesComponent</text>
</g>
<!-- PersonnesActivesComponent&#45;&gt;AppModule -->
<g id="edge4" class="edge">
<title>PersonnesActivesComponent&#45;&gt;AppModule</title>
<path fill="none" stroke="black" d="M270,-84.82C270,-102.17 270,-125.8 270,-125.8 270,-125.8 417.28,-125.8 417.28,-125.8"/>
<polygon fill="black" stroke="black" points="417.28,-129.3 427.28,-125.8 417.28,-122.3 417.28,-129.3"/>
</g>
<!-- historiqueComponent -->
<g id="node5" class="node">
<title>historiqueComponent</title>
<polygon fill="#ffffb3" stroke="black" points="161.82,-84.8 24.18,-84.8 24.18,-48.8 161.82,-48.8 161.82,-84.8"/>
<text text-anchor="middle" x="93" y="-62.6" font-family="Times,serif" font-size="14.00">historiqueComponent</text>
</g>
<!-- historiqueComponent&#45;&gt;AppModule -->
<g id="edge5" class="edge">
<title>historiqueComponent&#45;&gt;AppModule</title>
<path fill="none" stroke="black" d="M93,-85.08C93,-106.12 93,-137.8 93,-137.8 93,-137.8 417.32,-137.8 417.32,-137.8"/>
<polygon fill="black" stroke="black" points="417.32,-141.3 427.32,-137.8 417.32,-134.3 417.32,-141.3"/>
</g>
<!-- AppComponent  -->
<g id="node7" class="node">
<title>AppComponent </title>
<polygon fill="#80b1d3" stroke="black" points="523.44,-214.8 414.56,-214.8 414.56,-178.8 523.44,-178.8 523.44,-214.8"/>
<text text-anchor="middle" x="469" y="-192.6" font-family="Times,serif" font-size="14.00">AppComponent </text>
</g>
<!-- AppModule&#45;&gt;AppComponent  -->
<g id="edge6" class="edge">
<title>AppModule&#45;&gt;AppComponent </title>
<path fill="none" stroke="black" stroke-dasharray="1,5" d="M469,-149.91C469,-149.91 469,-168.79 469,-168.79"/>
<polygon fill="black" stroke="black" points="465.5,-168.79 469,-178.79 472.5,-168.79 465.5,-168.79"/>
</g>
</g>
</svg>
